<?xml version="1.0" standalone="no"?>
<!DOCTYPE svg PUBLIC "-//W3C//DTD SVG 20010904//EN"
 "http://www.w3.org/TR/2001/REC-SVG-20010904/DTD/svg10.dtd">
<svg version="1.0" xmlns="http://www.w3.org/2000/svg"
 width="260.000000pt" height="260.000000pt" viewBox="0 0 260.000000 260.000000"
 preserveAspectRatio="xMidYMid meet">
<metadata>
Created by potrace 1.11, written by Peter Selinger 2001-2013
</metadata>
<g transform="translate(0.000000,260.000000) scale(0.100000,-0.100000)"
fill="#000000" stroke="none">
<path d="M685 2356 c-407 -92 -410 -93 -424 -122 -23 -46 -26 -120 -7 -148 9
-14 16 -34 16 -46 0 -12 15 -30 41 -47 39 -26 41 -29 35 -66 -6 -34 -4 -38 11
-33 25 7 850 186 858 186 4 0 -10 22 -29 49 -34 46 -36 55 -35 113 3 125 -16
210 -46 207 -5 -1 -194 -43 -420 -93z m245 -15 c0 -5 3 -16 6 -25 4 -11 -5
-18 -39 -27 -36 -9 -44 -14 -40 -30 3 -12 13 -18 27 -16 16 2 22 -4 24 -25 2
-20 -1 -28 -12 -28 -10 0 -16 -9 -16 -21 0 -19 4 -21 39 -15 34 5 39 3 44 -16
4 -12 5 -24 3 -26 -10 -9 -111 -31 -117 -24 -7 8 -61 223 -57 227 4 5 110 33
126 34 6 1 12 -3 12 -8z m-235 -104 c5 -28 11 -37 23 -35 13 3 17 15 17 48 0
39 3 45 22 48 19 3 23 -4 33 -55 6 -32 16 -75 21 -97 12 -43 12 -41 -19 -50
-19 -6 -23 -3 -28 24 -9 43 -40 37 -38 -7 1 -24 -3 -33 -19 -37 -12 -3 -23 -3
-25 -1 -2 2 -13 41 -23 87 -11 46 -21 93 -24 105 -4 17 0 22 17 25 28 4 35 -5
43 -55z m-92 21 c4 -13 0 -26 -10 -33 -15 -11 -14 -18 1 -83 19 -75 16 -92
-14 -92 -16 0 -22 14 -36 80 -13 62 -21 80 -33 78 -11 -2 -17 6 -19 23 -3 23
2 27 40 36 63 15 65 15 71 -9z"/>
<path d="M75 1908 c-22 -11 -41 -21 -42 -22 -2 -1 72 -163 162 -359 91 -196
165 -365 165 -375 0 -14 -87 -299 -174 -568 -6 -19 -1 -24 40 -38 26 -9 48
-15 50 -13 11 11 413 1312 407 1318 -10 9 -83 32 -87 27 -2 -1 -43 -130 -92
-285 -48 -156 -91 -280 -96 -275 -4 4 -68 140 -143 302 -75 162 -139 298 -143
301 -4 4 -25 -2 -47 -13z"/>
<path d="M943 1868 c-51 -11 -51 -12 -23 -139 l20 -90 -180 -553 c-99 -305
-180 -556 -180 -559 0 -2 21 -10 47 -18 40 -11 48 -11 52 2 3 8 51 153 106
324 l101 310 74 3 c40 2 77 -1 81 -5 5 -5 40 -154 79 -333 39 -178 72 -325 73
-326 4 -4 97 17 97 21 0 7 -131 609 -136 628 -5 15 2 17 45 17 l51 0 0 50 0
50 -60 0 -59 0 -10 38 c-5 20 -24 105 -42 189 l-32 152 30 98 30 98 -46 16
c-33 11 -48 13 -53 5 -5 -7 -8 -5 -8 6 0 24 -9 26 -57 16z m72 -580 l7 -38
-46 0 c-30 0 -46 4 -46 13 0 12 35 128 47 157 6 14 24 -48 38 -132z"/>
<path d="M2005 1748 c3 -51 12 -304 20 -563 8 -259 17 -534 21 -613 l6 -143
50 3 51 3 1 40 c1 34 34 90 219 379 l217 338 -147 176 c-82 97 -190 226 -240
286 -82 96 -93 114 -93 148 l0 38 -55 0 -55 0 5 -92z m300 -383 c83 -98 149
-181 148 -186 -6 -21 -297 -468 -302 -463 -5 5 -29 629 -30 784 0 82 0 84 17
64 10 -11 85 -101 167 -199z"/>
<path d="M1363 1822 l-23 -3 0 -527 c0 -290 3 -605 7 -699 l6 -173 48 0 49 0
2 334 3 335 170 -271 c94 -149 173 -275 176 -280 9 -15 91 42 85 59 -3 7 -89
146 -190 308 l-185 294 155 121 c85 67 154 125 152 130 -2 4 -81 83 -177 174
-107 104 -178 165 -187 162 -10 -4 -14 2 -14 19 0 26 -6 28 -77 17z m215 -285
l84 -84 -103 -81 c-71 -56 -106 -77 -111 -69 -4 7 -8 90 -8 185 l0 173 28 -20
c15 -11 65 -58 110 -104z"/>
</g>
</svg>
